HIERARCHY
ROOT Hips
{
	OFFSET 0.000000 0.000000 0.000000 
	CHANNELS 6 Xposition Yposition Zposition Zrotation Yrotation Xrotation
	JOINT LeftUpLeg
	{
		OFFSET 1.363060 -1.794630 0.839290 
		CHANNELS 3 Zrotation Yrotation Xrotation
		JOINT LeftLeg
		{
			OFFSET 2.448110 -6.726130 0.000000 
			CHANNELS 3 Zrotation Yrotation Xrotation
			JOINT LeftFoot
			{
				OFFSET 2.562200 -7.039590 0.000000 
				CHANNELS 3 Zrotation Yrotation Xrotation
				JOINT LeftToeBase
				{
					OFFSET 0.157640 -0.433110 2.322550 
					CHANNELS 3 Zrotation Yrotation Xrotation
					End Site
					{
						OFFSET 0.000000 0.000000 0.000000 
					}
				}
			}
		}
	}
	JOINT RightUpLeg
	{
		OFFSET -1.305520 -1.794630 0.839290 
		CHANNELS 3 Zrotation Yrotation Xrotation
		JOINT RightLeg
		{
			OFFSET -2.542530 -6.985550 0.000000 
			CHANNELS 3 Zrotation Yrotation Xrotation
			JOINT RightFoot
			{
				OFFSET -2.568260 -7.056230 0.000000 
				CHANNELS 3 Zrotation Yrotation Xrotation
				JOINT RightToeBase
				{
					OFFSET -0.164730 -0.452590 2.363150 
					CHANNELS 3 Zrotation Yrotation Xrotation
					End Site
					{
						OFFSET 0.000000 0.000000 0.000000 
					}
				}
			}
		}
	}
	JOINT Spine
	{
		OFFSET 0.028270 2.035590 -0.193380 
		CHANNELS 3 Zrotation Yrotation Xrotation
		JOINT Spine1
		{
			OFFSET 0.056720 2.048850 -0.042750 
			CHANNELS 3 Zrotation Yrotation Xrotation
			JOINT Neck1
			{
				OFFSET -0.054170 1.746240 0.172020 
				CHANNELS 3 Zrotation Yrotation Xrotation
				JOINT Head
				{
					OFFSET 0.104070 1.761360 -0.123970 
					CHANNELS 3 Zrotation Yrotation Xrotation
					End Site
					{
						OFFSET 0.000000 0.000000 0.000000 
					}
				}
			}
			JOINT LeftArm
			{
				OFFSET 3.362410 1.200890 -0.311210 
				CHANNELS 3 Zrotation Yrotation Xrotation
				JOINT LeftForeArm
				{
					OFFSET 4.983000 -0.000000 -0.000000 
					CHANNELS 3 Zrotation Yrotation Xrotation
					JOINT LeftHand
					{
						OFFSET 3.483560 -0.000000 -0.000000 
						CHANNELS 3 Zrotation Yrotation Xrotation
						JOINT LeftHandIndex1
						{
							OFFSET 0.715260 -0.000000 -0.000000 
							CHANNELS 3 Zrotation Yrotation Xrotation
							End Site
							{
								OFFSET 0.000000 0.000000 0.000000 
							}
						}
					}
				}
			}
			JOINT RightArm
			{
				OFFSET -3.136600 1.374050 -0.404650 
				CHANNELS 3 Zrotation Yrotation Xrotation
				JOINT RightForeArm
				{
					OFFSET -5.241900 -0.000000 -0.000000 
					CHANNELS 3 Zrotation Yrotation Xrotation
					JOINT RightHand
					{
						OFFSET -3.444170 -0.000000 -0.000000 
						CHANNELS 3 Zrotation Yrotation Xrotation
						JOINT RightHandIndex1
						{
							OFFSET -0.622530 -0.000000 -0.000000 
							CHANNELS 3 Zrotation Yrotation Xrotation
							End Site
							{
								OFFSET 0.000000 0.000000 0.000000 
							}
						}
					}
				}
			}
		}
	}
}
MOTION
Frames: 17
Frame Time: 0.041667
0.703238 17.266541 -0.987461 106.953040 87.451074 104.825859 -12.063915 -4.429830 -13.119064 0.003509 9.520272 24.588205 -0.567562 5.889993 -4.183728 0.181800 -2.746000 -7.572300 14.388565 -12.143780 30.887450 -0.202374 -3.227593 4.907000 -0.946741 -0.232129 -20.937851 -0.214700 2.983200 -8.232000 0.559012 -0.012331 0.145520 -1.733474 -0.308376 8.312064 4.085513 1.920669 14.335879 -0.606300 1.346000 14.163800 -3.106140 -57.190920 3.155088 24.250055 -33.199006 -7.865386 0.199707 0.570098 -9.268555 -7.125000 0.000000 0.000000 -1.191661 64.311837 -6.569241 -25.462562 38.529202 -7.531601 0.875748 -1.549098 -4.091016 7.125000 0.000000 0.000000 
0.789621 17.274626 -1.041910 98.438739 87.416366 96.346599 -12.566724 -4.190587 -12.926217 0.031072 9.603696 24.830000 -0.542704 5.758553 -4.607928 0.215200 -2.986400 -8.240900 14.029997 -11.678204 31.114543 -0.211517 -3.326107 5.278861 -0.921887 -0.556464 -20.820910 -0.250700 3.221700 -8.896500 0.514987 0.069405 0.189311 -1.587255 -0.286115 8.414892 4.217269 1.914857 14.291352 -0.495600 1.336100 14.138200 -3.039833 -57.119540 3.064420 24.252720 -33.216462 -7.872359 0.194503 0.571409 -9.426217 -7.125000 0.000000 0.000000 -1.214165 64.348628 -6.471857 -25.402469 38.466587 -7.496113 0.864659 -1.549398 -4.216112 7.125000 0.000000 0.000000 
0.872830 17.286908 -1.093494 88.014623 87.678590 85.956881 -12.641414 -3.837378 -12.649763 0.059142 9.596211 24.924108 -0.520681 5.606456 -5.002752 0.194500 -2.840000 -7.833600 14.179216 -11.176448 31.073315 -0.219550 -3.482917 5.753307 -0.874196 -1.155039 -20.693388 -0.385300 3.986300 -11.038100 0.468793 0.276645 0.163281 -1.698125 -0.171788 8.215385 4.251941 1.893239 14.270582 -0.497000 1.346800 14.047100 -3.321500 -57.135873 3.643700 24.371662 -33.333140 -7.935214 0.195081 0.567019 -9.667171 -7.125000 0.000000 0.000000 -0.322243 64.210478 -5.601701 -25.332169 38.383605 -7.453588 0.855316 -1.545433 -4.331671 7.125000 0.000000 0.000000 
0.955323 17.303182 -1.148251 77.258973 87.860792 75.235998 -12.723734 -3.486580 -12.283151 0.076126 9.543193 24.922439 -0.485936 5.368137 -5.404216 0.128500 -2.310300 -6.364100 14.122928 -10.875592 30.963321 -0.237400 -3.649973 6.226183 -0.837179 -1.242554 -20.337678 -0.423100 4.174900 -11.569100 0.443787 0.394842 0.181789 -1.749986 -0.118873 8.194123 4.180014 1.994642 14.238056 -0.552600 1.388300 14.038300 -3.382412 -56.980951 3.844834 24.467082 -33.434327 -7.989900 0.198442 0.560109 -9.858072 -7.125000 0.000000 0.000000 -0.070780 64.164766 -5.216680 -25.331845 38.381199 -7.449370 0.852423 -1.543601 -4.429253 7.125000 0.000000 0.000000 
1.043753 17.322935 -1.202598 69.524644 87.780900 67.511394 -13.025407 -3.082649 -11.865506 0.072681 9.476841 24.839432 -0.451381 5.152919 -5.735062 0.105600 -2.095400 -5.769300 13.822434 -10.578220 30.958652 -0.264933 -3.836928 6.786053 -0.832542 -0.946466 -20.046916 -0.318900 3.629700 -10.037200 0.411819 0.448279 0.229107 -1.727540 -0.113295 8.317675 4.113210 2.042283 14.254749 -0.586300 1.396000 14.085100 -3.398461 -56.778065 3.840279 24.537862 -33.517700 -8.033780 0.205271 0.550236 -9.876683 -7.125000 0.000000 0.000000 -0.012231 64.160622 -4.951632 -25.381848 38.441412 -7.478603 0.855719 -1.547994 -4.421685 7.125000 0.000000 0.000000 
1.132591 17.344224 -1.252237 62.892133 87.685261 60.897611 -13.254677 -2.650323 -11.499068 0.075284 9.417452 24.779131 -0.428574 5.018001 -6.030856 0.112500 -2.162400 -5.954600 13.661493 -10.276848 30.900651 -0.292698 -4.049118 7.405369 -0.828067 -0.759141 -19.850388 -0.275200 3.374500 -9.323200 0.384820 0.529960 0.243118 -1.691587 -0.099276 8.306511 4.163851 2.089993 14.257709 -0.530400 1.410700 14.077500 -3.456463 -56.696875 4.053430 24.587235 -33.569781 -8.059896 0.211001 0.541678 -9.924719 -7.125000 0.000000 0.000000 0.254182 64.210038 -4.596668 -25.286185 38.351221 -7.432611 0.862632 -1.554854 -4.260801 7.125000 0.000000 0.000000 
1.215494 17.366536 -1.298396 56.542244 87.549118 54.620013 -13.421838 -2.275393 -11.178069 0.068288 9.342557 24.669870 -0.426154 5.035804 -6.351500 0.121700 -2.249100 -6.194700 13.575089 -9.963758 30.721291 -0.321752 -4.265938 8.027384 -0.802539 -0.791244 -19.571169 -0.318500 3.627800 -10.031900 0.351109 0.677413 0.231941 -1.698373 -0.050549 8.184391 4.248763 2.153212 14.206248 -0.466700 1.442900 14.002000 -3.430629 -56.784191 4.379106 24.574916 -33.547210 -8.045020 0.212363 0.539413 -10.026142 -7.125000 0.000000 0.000000 0.622620 64.197645 -4.170793 -25.055822 38.111683 -7.310597 0.861641 -1.557506 -4.032694 7.125000 0.000000 0.000000 
1.297373 17.389666 -1.346398 51.387467 87.411899 49.575283 -13.595524 -1.975965 -10.820426 0.037117 9.233891 24.433777 -0.437588 5.145787 -6.571484 0.138200 -2.395700 -6.600600 13.339917 -9.862384 30.406570 -0.355017 -4.500219 8.674976 -0.762274 -0.741780 -19.069671 -0.359000 3.849100 -10.652600 0.309044 0.829302 0.248254 -1.791095 0.015235 8.208049 4.278150 2.128745 14.170395 -0.466000 1.442900 13.981400 -3.283024 -56.889071 4.524226 24.604803 -33.568301 -8.055683 0.214109 0.536367 -10.034806 -7.125000 0.000000 0.000000 0.940417 64.058147 -3.906645 -24.908392 37.965689 -7.244468 0.855889 -1.566429 -3.644040 7.125000 0.000000 0.000000 
1.377716 17.411364 -1.395423 46.059831 87.368851 44.401581 -13.637829 -1.731745 -10.507792 0.012634 9.125888 24.211369 -0.444085 5.206750 -6.738696 0.146900 -2.469900 -6.806100 13.235943 -9.821815 29.915206 -0.398719 -4.798896 9.474921 -0.739093 -0.515106 -18.661725 -0.317800 3.623600 -10.020100 0.290593 0.909140 0.268395 -1.873331 0.044372 8.282011 4.285082 2.111450 14.120656 -0.477100 1.440800 13.944100 -3.271577 -56.741782 4.721936 24.750390 -33.722377 -8.141071 0.226227 0.526298 -10.025731 -7.125000 0.000000 0.000000 1.153969 63.967994 -3.658272 -24.908508 37.981203 -7.257927 0.863254 -1.577112 -3.449493 7.125000 0.000000 0.000000 
1.453455 17.433369 -1.442094 42.404517 87.225310 40.963088 -13.760660 -1.599475 -10.373834 0.005181 9.098995 24.169132 -0.437317 5.225548 -7.102775 0.144200 -2.446900 -6.742400 13.008594 -9.727543 29.352097 -0.455841 -5.103382 10.326303 -0.727752 -0.151653 -18.296598 -0.247300 3.199800 -8.835500 0.276295 0.955897 0.254724 -1.876665 0.051451 8.227189 4.227714 2.224415 14.005835 -0.515900 1.480300 13.843100 -3.394038 -56.557204 4.957283 24.845708 -33.825437 -8.197918 0.247810 0.512947 -10.032842 -7.125000 0.000000 0.000000 1.332489 63.953600 -3.306754 -24.898527 37.966745 -7.244609 0.878549 -1.572273 -3.513619 7.125000 0.000000 0.000000 
1.527043 17.457319 -1.486309 40.309956 87.134231 39.084670 -13.903104 -1.572970 -10.268519 -0.002540 9.094915 24.161549 -0.422824 5.212813 -7.513755 0.138700 -2.400000 -6.612400 12.867696 -9.599674 28.833854 -0.509619 -5.373311 11.090264 -0.697207 -0.047833 -17.850379 -0.193700 2.834400 -7.818100 0.262510 0.961785 0.225796 -1.889583 0.044907 8.124505 4.113401 2.331505 13.937823 -0.600900 1.517800 13.834500 -3.408935 -56.496518 5.068728 24.852698 -33.822900 -8.195395 0.255538 0.502180 -9.974146 -7.125000 0.000000 0.000000 1.596287 63.945579 -2.995423 -24.828280 37.880083 -7.197463 0.890850 -1.565581 -3.399814 7.125000 0.000000 0.000000 
1.602372 17.479631 -1.527248 38.023256 87.111279 36.994746 -13.973401 -1.549052 -10.036579 -0.040270 9.010975 23.935866 -0.427224 5.290983 -7.731538 0.145500 -2.458000 -6.773300 12.926321 -9.437693 28.274464 -0.565942 -5.685419 11.956739 -0.663828 -0.201303 -17.524432 -0.170200 2.658100 -7.328200 0.247580 0.993577 0.186072 -1.930607 0.054572 8.005263 4.079516 2.260425 13.948025 -0.643500 1.493300 13.855300 -3.403586 -56.517988 5.390712 24.858065 -33.811300 -8.187533 0.246420 0.499535 -10.028460 -7.125000 0.000000 0.000000 2.250626 63.799287 -2.438084 -24.811666 37.852117 -7.189448 0.901377 -1.566037 -3.107601 7.125000 0.000000 0.000000 
1.678622 17.501124 -1.567266 35.836064 87.068770 34.986469 -14.062856 -1.527405 -9.718783 -0.096082 8.888600 23.594491 -0.450321 5.472732 -7.819599 0.184100 -2.763200 -7.620100 12.755616 -9.502681 27.624401 -0.627306 -6.031362 12.900132 -0.616000 -0.403271 -17.024018 -0.214800 2.983400 -8.232500 0.227984 1.023973 0.174421 -1.968254 0.064970 7.971189 4.106560 2.257731 13.829075 -0.631200 1.492500 13.703500 -3.322899 -56.501347 5.654711 24.878131 -33.830699 -8.195980 0.243032 0.498525 -10.319497 -7.125000 0.000000 0.000000 2.631513 63.700272 -2.031515 -24.816997 37.860149 -7.192446 0.906276 -1.565105 -3.033308 7.125000 0.000000 0.000000 
1.752006 17.523334 -1.604624 34.131635 87.097827 33.395524 -14.113244 -1.580610 -9.390238 -0.140464 8.793810 23.331337 -0.465155 5.617701 -8.003229 0.216600 -2.996200 -8.268300 12.663506 -9.540904 27.034428 -0.694851 -6.394068 13.900934 -0.571556 -0.694918 -16.589855 -0.229400 3.083100 -8.510100 0.233415 0.998630 0.123716 -1.922421 0.039594 7.703433 4.079868 2.403604 13.692880 -0.655100 1.552400 13.592000 -3.584855 -56.360704 5.947627 24.922879 -33.876894 -8.224529 0.254238 0.497453 -10.421774 -7.125000 0.000000 0.000000 2.868005 63.693929 -1.566111 -24.813165 37.839952 -7.181051 0.912215 -1.562331 -3.223025 7.125000 0.000000 0.000000 
1.823036 17.543599 -1.638399 34.327015 87.052752 33.707861 -14.322606 -1.620361 -9.099903 -0.184974 8.733561 23.116274 -0.459045 5.649953 -8.243611 0.199700 -2.877300 -7.937200 12.631447 -9.289248 26.479346 -0.794048 -6.819526 15.134845 -0.556380 -0.869790 -16.455290 -0.158100 2.561800 -7.061200 0.219816 0.930701 0.193487 -1.843968 -0.004165 7.973882 3.969770 2.539618 13.635196 -0.738400 1.599700 13.621600 -3.199284 -56.203396 5.424665 24.857547 -33.831538 -8.197762 0.259957 0.499234 -10.170026 -7.125000 0.000000 0.000000 2.535007 63.851730 -2.058997 -24.799669 37.840880 -7.178669 0.907721 -1.565995 -3.149245 7.125000 0.000000 0.000000 
1.892940 17.561510 -1.671764 33.749699 86.950527 33.207316 -14.498708 -1.538593 -8.804892 -0.220257 8.666736 22.907697 -0.439691 5.570384 -8.408725 0.161900 -2.592100 -7.145100 12.628100 -8.975654 25.855212 -0.916777 -7.278196 16.478551 -0.533216 -1.001279 -16.166779 -0.092800 1.964400 -5.407400 0.207266 0.969798 0.183213 -1.744765 0.001165 7.885538 3.941783 2.536019 13.679935 -0.729400 1.580300 13.724500 -3.029016 -56.106410 5.508085 24.836913 -33.802745 -8.183520 0.257508 0.503553 -10.093374 -7.125000 0.000000 0.000000 2.781438 63.735216 -1.922020 -24.824092 37.852007 -7.193176 0.905665 -1.568342 -2.865522 7.125000 0.000000 0.000000 
1.958648 17.577067 -1.703390 30.594576 86.830018 30.202073 -14.451170 -1.422983 -8.600772 -0.241200 8.603437 22.751205 -0.444544 5.654880 -8.638769 0.149900 -2.495300 -6.876500 12.721632 -8.707554 25.047118 -1.046949 -7.721312 17.754156 -0.491420 -1.104262 -15.580081 -0.038200 1.262000 -3.470100 0.226711 1.060642 0.198763 -1.556186 0.014717 7.893434 4.031525 2.562252 13.593420 -0.621000 1.565100 13.701600 -2.832682 -56.035577 5.389204 24.845767 -33.810618 -8.187253 0.252506 0.502197 -10.092898 -7.125000 0.000000 0.000000 2.477415 63.576133 -1.963903 -24.853966 37.870837 -7.207374 0.898982 -1.570492 -3.047190 7.125000 0.000000 0.000000 
